#usda 1.0
(
    defaultPrim = "WristLabEnvironment"
)

def Xform "WristLabEnvironment" {
        def Mesh "environment_depth_proxy" {
            uniform bool doubleSided = true
            uniform token purpose = "render"
            bool physics:collisionEnabled = false
            uniform token subdivisionScheme = "none"
            point3f[] points = [(-0.39887217, 0.32497075, 0.26235703), (-0.13485271, -0.62805641, 0.16796993), (-0.14915194, -0.64457285, 0.1581627), (-0.16814017, -0.66589391, 0.1464175), (-0.17817132, -0.67841053, 0.13759387), (-0.041191034, -0.55164975, 0.16579644), (-0.050425537, -0.5632481, 0.15751518), (-0.063262947, -0.57864529, 0.14752099), (-0.066641159, -0.58440888, 0.14131364), (-0.066253878, -0.58632445, 0.1366411), (-0.061243638, -0.58345544, 0.13397889), (-0.054426812, -0.57868546, 0.13216761), (-0.051284034, -0.57773584, 0.12872131), (-0.044528134, -0.57298428, 0.12697683), (-0.016416516, -0.54489368, 0.12693566), (-0.017209301, -0.54044282, 0.12743914), (-0.013541746, -0.53137517, 0.13014069), (-0.020581635, -0.53337288, 0.12756859), (-0.039271705, -0.54707396, 0.11931556), (-0.066079929, -0.56858253, 0.10716289), (-0.020559693, -0.55693382, 0.11910111), (-0.013405745, -0.54398388, 0.12363411), (-0.014198529, -0.53953308, 0.1241376), (-0.013217322, -0.53323853, 0.12553145), (-0.02022568, -0.53520304, 0.12292292), (-0.036149237, -0.54613048, 0.11589153), (-0.056573253, -0.56129938, 0.10667583), (-0.079733096, -0.57881343, 0.096172139), (-0.091342077, -0.58445626, 0.091443039), (-0.10119316, -0.5881654, 0.087614469), (-0.11376002, -0.59433228, 0.082485177), (-0.017503226, -0.55601025, 0.11574947), (-0.015670335, -0.54868597, 0.11761793), (-0.01647114, -0.54419011, 0.1181265), (-0.016390054, -0.53877395, 0.11908582), (-0.019839209, -0.5370239, 0.11824387), (-0.028603885, -0.54066056, 0.11471273), (-0.050681327, -0.55762875, 0.10447392), (-0.07459747, -0.57601726, 0.093381152), (-0.091474414, -0.58695328, 0.085904531), (-0.10216998, -0.5914923, 0.081578039), (-0.11200377, -0.59499854, 0.077714995), (-0.017937977, -0.55885178, 0.11056241), (-0.015251576, -0.55056834, 0.11290894), (-0.016056392, -0.54604995, 0.11342007), (-0.015984342, -0.54061276, 0.11438752), (-0.018544177, -0.53792441, 0.11398686), (-0.028145321, -0.542436, 0.1099527), (-0.047462389, -0.55665612, 0.10094411), (-0.074775226, -0.57855964, 0.087894917), (-0.091566131, -0.58943808, 0.080321483), (-0.10044153, -0.59218276, 0.076839566), (-0.10668242, -0.59219366, 0.074724048), (-0.11560194, -0.59469068, 0.071270153), (-0.017464435, -0.56074131, 0.1057952), (-0.014802302, -0.55244142, 0.10816658), (-0.015611129, -0.54790056, 0.10868025), (-0.017291693, -0.54427683, 0.10873204), (-0.021594208, -0.54336733, 0.10740244), (-0.029405115, -0.54600662, 0.1042389), (-0.048622299, -0.56015706, 0.095117614), (-0.081929155, -0.5881874, 0.078696273), (-0.099523135, -0.59982783, 0.070575178), (-0.10397137, -0.59810019, 0.069338121), (-0.10754915, -0.59544778, 0.068563811), (-0.11201745, -0.5936076, 0.067339487), (-0.022136383, -0.56825083, 0.098174632), (-0.019506589, -0.55988955, 0.10057592), (-0.020327449, -0.55528116, 0.10109723), (-0.016814953, -0.54609424, 0.10395578), (-0.022837164, -0.54697239, 0.10167327), (-0.036699582, -0.55586666, 0.095209174), (-0.072369099, -0.58686501, 0.077148095), (-0.10291352, -0.61194903, 0.061939213), (-0.10996817, -0.61281216, 0.05929454), (-0.10829461, -0.6048637, 0.061285276), (-0.1074891, -0.59782344, 0.062809393), (-0.10843296, -0.59252447, 0.063408814), (-0.10322591, -0.58128858, 0.067226864), (-0.02157145, -0.57011276, 0.093307212), (-0.021542707, -0.56452262, 0.094309196), (-0.022371586, -0.55986911, 0.094835602), (-0.026646852, -0.55887228, 0.093469948), (-0.066343144, -0.58906764, 0.073791623), (-0.09406998, -0.61169469, 0.059774287), (-0.1092099, -0.59571189, 0.057147037), (-0.1022978, -0.58275598, 0.061939061), (-0.073156722, -0.61084706, 0.062238049), (0.049649585, -0.50116438, 0.11432572), (0.04891295, -0.4970288, 0.11479354), (0.049016256, -0.49197769, 0.11575749), (0.039868109, -0.49692979, 0.11127163), (0.053279303, -0.49939007, 0.11176141), (0.052544005, -0.495262, 0.11222838), (0.051808707, -0.4911339, 0.11269535), (0.046056125, -0.49244475, 0.11015719), (-0.04770755, -0.58216059, 0.056194421), (0.056071755, -0.4985463, 0.10869927), (0.056164905, -0.49349827, 0.10967436), (0.055430945, -0.48937768, 0.11014048), (0.04971021, -0.49068677, 0.10756809), (-0.0018123861, -0.54126537, 0.077199489), (-0.0359881, -0.57223946, 0.057533659), (-0.040205684, -0.57084554, 0.056075137), (-0.043597497, -0.56851661, 0.055126425), (-0.026856394, -0.56501424, 0.057453372), (0.0060873632, -0.53758651, 0.071373731), (-0.011206499, -0.55071545, 0.06157792), (-0.022778947, -0.55738866, 0.05542111), (0.026343597, -0.52324605, 0.077896394), (0.021463297, -0.52325189, 0.075789362), (0.0092024598, -0.53115076, 0.068998002), (-0.00719536, -0.54322863, 0.05962754), (0.03980992, -0.52649647, 0.078388654), (0.036604755, -0.5248546, 0.077293351), (0.031772565, -0.52498043, 0.075144045), (0.028548634, -0.52323353, 0.074060604), (0.026941027, -0.51965898, 0.074037947), (0.02289024, -0.51872087, 0.072436005), (0.011495253, -0.52560937, 0.066105567), (0.04518022, -0.5228411, 0.076747648), (0.041994248, -0.52121723, 0.075633064), (0.038800299, -0.5195483, 0.074523605), (0.031569559, -0.52232075, 0.070747927), (0.029967031, -0.51874465, 0.070719704), (0.029170236, -0.51427132, 0.071225733), (0.020275885, -0.51854557, 0.066414662), (0.057689976, -0.5109306, 0.080021389), (0.056131247, -0.50757068, 0.079962946), (0.051372558, -0.50780874, 0.07774353), (0.04579984, -0.50886744, 0.074992791), (0.041013077, -0.50894791, 0.072791211), (0.034606233, -0.51071477, 0.069521844), (0.030594775, -0.5097568, 0.06787625), (0.012064279, -0.52432191, 0.056581687), (0.070077837, -0.49905694, 0.083428718), (0.066954456, -0.49760395, 0.082260385), (0.066205792, -0.49340078, 0.082735851), (0.05909238, -0.49635136, 0.078848168), (0.051957581, -0.49918184, 0.074974068), (0.041608375, -0.505409, 0.068938807), (0.034425445, -0.50796926, 0.065095276), (0.022415509, -0.51559454, 0.058013357), (0.076838337, -0.49362645, 0.083095141), (0.078463905, -0.48676026, 0.085221797), (0.076940775, -0.48353985, 0.085136123), (0.057257611, -0.49564263, 0.073417522), (0.038248245, -0.51152825, 0.061271001), (0.081985243, -0.49003857, 0.081699103), (0.089078903, -0.47685647, 0.087747477), (0.088358313, -0.47281095, 0.088205107), (0.082139686, -0.47500339, 0.084767066), (0.042857803, -0.51420361, 0.058002401), (0.10067163, -0.47287402, 0.085279539), (0.098415151, -0.47068721, 0.084592484), (0.09305758, -0.47205269, 0.08163482), (0.086133383, -0.47510427, 0.077551991), (0.071421608, -0.48684147, 0.067814626), (0.10260646, -0.47296694, 0.08174181), (0.10112637, -0.46986797, 0.081619427), (0.09579926, -0.47122425, 0.078628354), (0.086605094, -0.47692314, 0.072781324), (0.077381469, -0.48245698, 0.066952936), (0.064264081, -0.49218327, 0.058285605), (0.10302927, -0.47487175, 0.077030309), (0.086342104, -0.47961786, 0.067398421), (0.076402523, -0.4859823, 0.060934249), (0.10045835, -0.48039141, 0.069937721), (0.095188156, -0.48170677, 0.066882379), (0.081559442, -0.48760113, 0.058464807), (0.10396621, -0.47865394, 0.067507029), (0.10098474, -0.47727668, 0.066192336), (0.097241573, -0.47674394, 0.064291932), (0.08442805, -0.48673433, 0.055319156), (0.10671804, -0.47782242, 0.064489432), (0.10449901, -0.47554517, 0.063755229), (0.10002895, -0.47590166, 0.061235365), (0.090178736, -0.43953288, 0.058686029), (0.084128119, -0.44098642, 0.055010077), (-0.064556189, 0.35692984, 0.1053067), (-0.06632027, 0.36198363, 0.10533656), (-0.070996977, 0.36883885, 0.10394467), (-0.069856517, 0.37213629, 0.10540134), (-0.064820051, 0.37296176, 0.10874576), (-0.058793627, 0.37307924, 0.11255189), (-0.067466043, 0.35739821, 0.098110691), (-0.06730859, 0.36133456, 0.099103577), (-0.068112068, 0.36584544, 0.099613853), (-0.068915553, 0.37035632, 0.10012412), (-0.069719031, 0.3748672, 0.1006344), (-0.068587393, 0.37815407, 0.10210135), (-0.064543657, 0.37955236, 0.10499741), (-0.060486551, 0.38087559, 0.10788498), (-0.061273988, 0.3852964, 0.10838506), (-0.068871833, 0.39421141, 0.10556051), (-0.064409576, 0.35832176, 0.09475904), (-0.065214396, 0.36284015, 0.095270164), (-0.065060683, 0.36676747, 0.096267767), (-0.062024869, 0.36888421, 0.098720491), (-0.061861858, 0.37275904, 0.099712126), (-0.058808666, 0.37477821, 0.10215382), (-0.060563989, 0.37984261, 0.10217336), (-0.061356772, 0.38429344, 0.10267685), (-0.066015527, 0.39128846, 0.10125488), (-0.067194045, 0.35871723, 0.087434255), (-0.065155998, 0.36155549, 0.089432508), (-0.065014102, 0.36551884, 0.090439901), (-0.062962748, 0.36828208, 0.092429638), (-0.059948578, 0.37040019, 0.094905481), (-0.054055456, 0.37063554, 0.098845534), (-0.049101077, 0.3713809, 0.1022842), (-0.047965623, 0.3745265, 0.10375817), (-0.070831731, 0.35959321, 0.079518616), (-0.068823628, 0.36250943, 0.081542917), (-0.065861851, 0.36480153, 0.084061407), (-0.065730385, 0.36879337, 0.085077763), (-0.061802913, 0.37039381, 0.088082805), (-0.055962712, 0.37071601, 0.092072874), (-0.051054839, 0.37154222, 0.095555134), (-0.073430188, 0.35981551, 0.072007753), (-0.071450733, 0.36280221, 0.074057214), (-0.072280951, 0.3674632, 0.074584469), (-0.069348849, 0.3698017, 0.077131175), (-0.066406049, 0.37208018, 0.079671085), (-0.067225568, 0.37668112, 0.080191553), (-0.056709997, 0.37404442, 0.086739801), (-0.065604575, 0.35797465, 0.071098499), (-0.068297803, 0.3637549, 0.070599779), (-0.069128022, 0.36841589, 0.071127035), (-0.070893727, 0.37365901, 0.071143866), (-0.070788451, 0.37773788, 0.072181545), (-0.064113252, 0.37762153, 0.076778658), (-0.060709186, 0.35372466, 0.067646034), (-0.061535392, 0.35836312, 0.068170741), (-0.065144867, 0.36470762, 0.067142352), (-0.065975085, 0.36936861, 0.067669608), (-0.073318243, 0.37811539, 0.064584896), (-0.080680177, 0.38696724, 0.061512046), (-0.058582582, 0.35112965, 0.062628992), (-0.061251491, 0.35689354, 0.062105458), (-0.065768398, 0.36381286, 0.060537111), (-0.073063985, 0.3725028, 0.057405788)]
            int[] faceVertexCounts = [3, 3, 3, 3, 3, 3, 3, 3, 3, 3, 3, 3, 3, 3, 3, 3, 3, 3, 3, 3, 3, 3, 3, 3, 3, 3, 3, 3, 3, 3, 3, 3, 3, 3, 3, 3, 3, 3, 3, 3, 3, 3, 3, 3, 3, 3, 3, 3, 3, 3, 3, 3, 3, 3, 3, 3, 3, 3, 3, 3, 3, 3, 3, 3, 3, 3, 3, 3, 3, 3, 3, 3, 3, 3, 3, 3, 3, 3, 3, 3, 3, 3, 3, 3, 3, 3, 3, 3, 3, 3, 3, 3, 3, 3, 3, 3, 3, 3, 3, 3, 3, 3, 3, 3, 3, 3, 3, 3, 3, 3, 3, 3, 3, 3, 3, 3, 3, 3, 3, 3, 3, 3, 3, 3, 3, 3, 3, 3, 3, 3, 3, 3, 3, 3, 3, 3, 3, 3, 3, 3, 3, 3, 3, 3, 3, 3, 3, 3, 3, 3, 3, 3, 3, 3, 3, 3, 3, 3, 3, 3, 3, 3, 3, 3, 3, 3, 3, 3, 3, 3, 3, 3, 3, 3, 3, 3, 3, 3, 3, 3, 3, 3, 3, 3, 3, 3, 3, 3, 3, 3, 3, 3, 3, 3, 3, 3, 3, 3, 3, 3, 3, 3, 3, 3, 3, 3, 3, 3, 3, 3, 3, 3, 3, 3, 3, 3, 3, 3, 3, 3, 3, 3, 3, 3, 3, 3, 3, 3, 3, 3, 3, 3, 3, 3, 3, 3, 3, 3, 3, 3, 3, 3, 3, 3, 3, 3, 3, 3, 3, 3, 3, 3, 3, 3, 3, 3, 3, 3, 3, 3, 3, 3, 3, 3, 3, 3, 3, 3, 3, 3, 3, 3, 3, 3, 3, 3, 3, 3, 3, 3, 3, 3, 3, 3, 3, 3, 3, 3, 3, 3, 3, 3, 3, 3, 3, 3, 3, 3]
            int[] faceVertexIndices = [14, 21, 20, 14, 15, 21, 15, 22, 21, 15, 16, 22, 16, 23, 22, 16, 17, 23, 17, 24, 23, 17, 18, 24, 18, 25, 24, 18, 19, 25, 19, 26, 25, 20, 21, 31, 21, 32, 31, 21, 22, 32, 22, 33, 32, 22, 23, 33, 23, 34, 33, 23, 24, 34, 24, 35, 34, 24, 25, 35, 25, 36, 35, 25, 26, 36, 26, 37, 36, 26, 27, 37, 27, 38, 37, 27, 28, 38, 28, 39, 38, 28, 29, 39, 29, 40, 39, 29, 30, 40, 30, 41, 40, 31, 32, 42, 32, 43, 42, 32, 33, 43, 33, 44, 43, 33, 34, 44, 34, 45, 44, 34, 35, 45, 35, 46, 45, 35, 36, 46, 36, 47, 46, 36, 37, 47, 37, 48, 47, 37, 38, 48, 38, 49, 48, 38, 39, 49, 39, 50, 49, 39, 40, 50, 40, 51, 50, 40, 41, 51, 41, 52, 51, 42, 43, 54, 43, 55, 54, 43, 44, 55, 44, 56, 55, 44, 45, 56, 45, 57, 56, 45, 46, 57, 46, 58, 57, 46, 47, 58, 47, 59, 58, 47, 48, 59, 48, 60, 59, 48, 49, 60, 49, 61, 60, 49, 50, 61, 50, 62, 61, 50, 51, 62, 51, 63, 62, 51, 52, 63, 52, 64, 63, 52, 53, 64, 53, 65, 64, 54, 55, 66, 55, 67, 66, 55, 56, 67, 56, 68, 67, 56, 57, 68, 57, 69, 68, 57, 58, 69, 58, 70, 69, 58, 59, 70, 59, 71, 70, 59, 60, 71, 60, 72, 71, 60, 61, 72, 61, 73, 72, 61, 62, 73, 62, 74, 73, 62, 63, 74, 63, 75, 74, 63, 64, 75, 64, 76, 75, 64, 65, 76, 65, 77, 76, 66, 67, 79, 67, 80, 79, 67, 68, 80, 68, 81, 80, 68, 69, 81, 69, 82, 81, 69, 70, 82, 71, 72, 83, 72, 84, 83, 72, 73, 84, 77, 78, 85, 78, 86, 85, 88, 89, 92, 89, 93, 92, 89, 90, 93, 90, 94, 93, 90, 91, 94, 91, 95, 94, 92, 93, 97, 93, 98, 97, 93, 94, 98, 94, 99, 98, 94, 95, 99, 95, 100, 99, 102, 103, 105, 105, 107, 106, 106, 110, 109, 106, 107, 110, 107, 111, 110, 107, 108, 111, 108, 112, 111, 109, 116, 115, 109, 110, 116, 110, 117, 116, 110, 111, 117, 111, 118, 117, 111, 112, 118, 112, 119, 118, 113, 114, 120, 114, 121, 120, 114, 115, 121, 115, 122, 121, 115, 116, 122, 116, 123, 122, 116, 117, 123, 117, 124, 123, 117, 118, 124, 118, 125, 124, 118, 119, 125, 119, 126, 125, 120, 121, 127, 121, 128, 127, 121, 122, 128, 122, 129, 128, 122, 123, 129, 123, 130, 129, 123, 124, 130, 124, 131, 130, 124, 125, 131, 125, 132, 131, 125, 126, 132, 126, 133, 132, 127, 128, 135, 128, 136, 135, 128, 129, 136, 129, 137, 136, 129, 130, 137, 130, 138, 137, 130, 131, 138, 131, 139, 138, 131, 132, 139, 132, 140, 139, 132, 133, 140, 133, 141, 140, 133, 134, 141, 134, 142, 141, 135, 136, 143, 136, 144, 143, 136, 137, 144, 137, 145, 144, 137, 138, 145, 139, 140, 146, 140, 147, 146, 140, 141, 147, 143, 144, 148, 144, 149, 148, 144, 145, 149, 145, 150, 149, 146, 147, 152, 153, 154, 158, 154, 159, 158, 154, 155, 159, 155, 160, 159, 155, 156, 160, 156, 161, 160, 156, 157, 161, 157, 162, 161, 158, 159, 164, 161, 162, 165, 162, 166, 165, 162, 163, 166, 165, 166, 169, 167, 168, 170, 168, 171, 170, 169, 173, 172, 170, 171, 174, 171, 175, 174, 171, 172, 175, 172, 176, 175, 172, 173, 176, 179, 186, 185, 179, 180, 186, 180, 187, 186, 180, 181, 187, 181, 188, 187, 181, 182, 188, 182, 189, 188, 182, 183, 189, 183, 190, 189, 183, 184, 190, 184, 191, 190, 185, 186, 195, 186, 196, 195, 186, 187, 196, 187, 197, 196, 187, 188, 197, 188, 198, 197, 188, 189, 198, 189, 199, 198, 189, 190, 199, 190, 200, 199, 190, 191, 200, 191, 201, 200, 191, 192, 201, 192, 202, 201, 192, 193, 202, 193, 203, 202, 193, 194, 203, 195, 205, 204, 195, 196, 205, 196, 206, 205, 196, 197, 206, 197, 207, 206, 197, 198, 207, 198, 208, 207, 198, 199, 208, 199, 209, 208, 199, 200, 209, 200, 210, 209, 200, 201, 210, 201, 211, 210, 201, 202, 211, 204, 213, 212, 204, 205, 213, 205, 214, 213, 205, 206, 214, 206, 215, 214, 206, 207, 215, 207, 216, 215, 207, 208, 216, 208, 217, 216, 208, 209, 217, 209, 218, 217, 209, 210, 218, 212, 220, 219, 212, 213, 220, 213, 221, 220, 213, 214, 221, 214, 222, 221, 214, 215, 222, 215, 223, 222, 215, 216, 223, 216, 224, 223, 216, 217, 224, 217, 225, 224, 217, 218, 225, 219, 220, 226, 220, 227, 226, 220, 221, 227, 221, 228, 227, 221, 222, 228, 222, 229, 228, 222, 223, 229, 223, 230, 229, 223, 224, 230, 224, 231, 230, 224, 225, 231, 226, 233, 232, 226, 227, 233, 227, 234, 233, 227, 228, 234, 228, 235, 234, 228, 229, 235, 229, 236, 235, 229, 230, 236, 230, 237, 236, 230, 231, 237, 232, 239, 238, 232, 233, 239, 233, 240, 239, 233, 234, 240, 234, 241, 240, 234, 235, 241]
            texCoord2f[] primvars:st = [(0.87793428, 1), (0, 0.99373692), (0, 0.98747391), (0, 0.98121083), (0, 0.97494781), (0, 0.94363254), (0, 0.93736953), (0, 0.93110645), (0, 0.92484343), (0, 0.91858035), (0, 0.91231734), (0, 0.90605426), (0, 0.89979124), (0, 0.89352816), (0.0046948357, 0.87473905), (0.0093896715, 0.87473905), (0.014084507, 0.87473905), (0.018779343, 0.87473905), (0.023474179, 0.87473905), (0.028169014, 0.87473905), (0, 0.86847597), (0.0046948357, 0.86847597), (0.0093896715, 0.86847597), (0.014084507, 0.86847597), (0.018779343, 0.86847597), (0.023474179, 0.86847597), (0.028169014, 0.86847597), (0.032863848, 0.86847597), (0.037558686, 0.86847597), (0.04225352, 0.86847597), (0.046948358, 0.86847597), (0, 0.86221296), (0.0046948357, 0.86221296), (0.0093896715, 0.86221296), (0.014084507, 0.86221296), (0.018779343, 0.86221296), (0.023474179, 0.86221296), (0.028169014, 0.86221296), (0.032863848, 0.86221296), (0.037558686, 0.86221296), (0.04225352, 0.86221296), (0.046948358, 0.86221296), (0, 0.85594988), (0.0046948357, 0.85594988), (0.0093896715, 0.85594988), (0.014084507, 0.85594988), (0.018779343, 0.85594988), (0.023474179, 0.85594988), (0.028169014, 0.85594988), (0.032863848, 0.85594988), (0.037558686, 0.85594988), (0.04225352, 0.85594988), (0.046948358, 0.85594988), (0.051643193, 0.85594988), (0, 0.84968686), (0.0046948357, 0.84968686), (0.0093896715, 0.84968686), (0.014084507, 0.84968686), (0.018779343, 0.84968686), (0.023474179, 0.84968686), (0.028169014, 0.84968686), (0.032863848, 0.84968686), (0.037558686, 0.84968686), (0.04225352, 0.84968686), (0.046948358, 0.84968686), (0.051643193, 0.84968686), (0, 0.84342378), (0.0046948357, 0.84342378), (0.0093896715, 0.84342378), (0.014084507, 0.84342378), (0.018779343, 0.84342378), (0.023474179, 0.84342378), (0.028169014, 0.84342378), (0.032863848, 0.84342378), (0.037558686, 0.84342378), (0.04225352, 0.84342378), (0.046948358, 0.84342378), (0.051643193, 0.84342378), (0.056338027, 0.84342378), (0, 0.83716077), (0.0046948357, 0.83716077), (0.0093896715, 0.83716077), (0.014084507, 0.83716077), (0.023474179, 0.83716077), (0.028169014, 0.83716077), (0.051643193, 0.83716077), (0.056338027, 0.83716077), (0.014084507, 0.83089769), (0, 0.81210858), (0.0046948357, 0.81210858), (0.0093896715, 0.81210858), (0.014084507, 0.81210858), (0, 0.8058455), (0.0046948357, 0.8058455), (0.0093896715, 0.8058455), (0.014084507, 0.8058455), (0.023474179, 0.8058455), (0, 0.79958248), (0.0046948357, 0.79958248), (0.0093896715, 0.79958248), (0.014084507, 0.79958248), (0.018779343, 0.79958248), (0.023474179, 0.79958248), (0.028169014, 0.79958248), (0.032863848, 0.79958248), (0.023474179, 0.7933194), (0.018779343, 0.78705639), (0.023474179, 0.78705639), (0.028169014, 0.78705639), (0.014084507, 0.78079331), (0.018779343, 0.78079331), (0.023474179, 0.78079331), (0.028169014, 0.78079331), (0, 0.77453029), (0.0046948357, 0.77453029), (0.0093896715, 0.77453029), (0.014084507, 0.77453029), (0.018779343, 0.77453029), (0.023474179, 0.77453029), (0.028169014, 0.77453029), (0, 0.76826721), (0.0046948357, 0.76826721), (0.0093896715, 0.76826721), (0.014084507, 0.76826721), (0.018779343, 0.76826721), (0.023474179, 0.76826721), (0.028169014, 0.76826721), (0, 0.7620042), (0.0046948357, 0.7620042), (0.0093896715, 0.7620042), (0.014084507, 0.7620042), (0.018779343, 0.7620042), (0.023474179, 0.7620042), (0.028169014, 0.7620042), (0.032863848, 0.7620042), (0, 0.75574112), (0.0046948357, 0.75574112), (0.0093896715, 0.75574112), (0.014084507, 0.75574112), (0.018779343, 0.75574112), (0.023474179, 0.75574112), (0.028169014, 0.75574112), (0.032863848, 0.75574112), (0, 0.7494781), (0.0046948357, 0.7494781), (0.0093896715, 0.7494781), (0.018779343, 0.7494781), (0.023474179, 0.7494781), (0, 0.74321502), (0.0046948357, 0.74321502), (0.0093896715, 0.74321502), (0.014084507, 0.74321502), (0.018779343, 0.74321502), (0, 0.73068893), (0.0046948357, 0.73068893), (0.0093896715, 0.73068893), (0.014084507, 0.73068893), (0.018779343, 0.73068893), (0, 0.72442591), (0.0046948357, 0.72442591), (0.0093896715, 0.72442591), (0.014084507, 0.72442591), (0.018779343, 0.72442591), (0.023474179, 0.72442591), (0, 0.71816283), (0.014084507, 0.71816283), (0.018779343, 0.71816283), (0, 0.71189982), (0.0046948357, 0.71189982), (0.014084507, 0.71189982), (0, 0.70563674), (0.0046948357, 0.70563674), (0.0093896715, 0.70563674), (0.014084507, 0.70563674), (0, 0.69937372), (0.0046948357, 0.69937372), (0.0093896715, 0.69937372), (0.056338027, 0.69311064), (0.061032865, 0.69311064), (0.92018777, 0.64926928), (0.92488265, 0.64926928), (0.92957747, 0.64926928), (0.93427229, 0.64926928), (0.93896711, 0.64926928), (0.94366199, 0.64926928), (0.91549295, 0.64300627), (0.92018777, 0.64300627), (0.92488265, 0.64300627), (0.92957747, 0.64300627), (0.93427229, 0.64300627), (0.93896711, 0.64300627), (0.94366199, 0.64300627), (0.94835681, 0.64300627), (0.95305163, 0.64300627), (0.95774651, 0.64300627), (0.91549295, 0.63674319), (0.92018777, 0.63674319), (0.92488265, 0.63674319), (0.92957747, 0.63674319), (0.93427229, 0.63674319), (0.93896711, 0.63674319), (0.94366199, 0.63674319), (0.94835681, 0.63674319), (0.95305163, 0.63674319), (0.91079813, 0.63048017), (0.91549295, 0.63048017), (0.92018777, 0.63048017), (0.92488265, 0.63048017), (0.92957747, 0.63048017), (0.93427229, 0.63048017), (0.93896711, 0.63048017), (0.94366199, 0.63048017), (0.90610331, 0.62421709), (0.91079813, 0.62421709), (0.91549295, 0.62421709), (0.92018777, 0.62421709), (0.92488265, 0.62421709), (0.92957747, 0.62421709), (0.93427229, 0.62421709), (0.90140843, 0.61795408), (0.90610331, 0.61795408), (0.91079813, 0.61795408), (0.91549295, 0.61795408), (0.92018777, 0.61795408), (0.92488265, 0.61795408), (0.92957747, 0.61795408), (0.90140843, 0.611691), (0.90610331, 0.611691), (0.91079813, 0.611691), (0.91549295, 0.611691), (0.92018777, 0.611691), (0.92488265, 0.611691), (0.89671361, 0.60542798), (0.90140843, 0.60542798), (0.90610331, 0.60542798), (0.91079813, 0.60542798), (0.91549295, 0.60542798), (0.92018777, 0.60542798), (0.8920188, 0.5991649), (0.89671361, 0.5991649), (0.90140843, 0.5991649), (0.90610331, 0.5991649)] ( interpolation = "vertex" )
            rel material:binding = <../environment_depth_proxy_material>
        }
        def Material "environment_depth_proxy_material" {
            token outputs:surface.connect = <surface.outputs:surface>
            def Shader "surface" {
                uniform token info:id = "UsdPreviewSurface"

                color3f inputs:diffuseColor.connect = <../image.outputs:rgb>
                float inputs:metallic = 0
                float inputs:roughness = 1

                token outputs:surface
            }
            def Shader "st_reader" {
                uniform token info:id = "UsdPrimvarReader_float2"
                token inputs:varname = "st"
                float2 outputs:result
            }
            def Shader "image" {
                uniform token info:id = "UsdUVTexture"
                asset inputs:file = @../textures/wrist_background_layer0.png@
                token inputs:sourceColorSpace = "sRGB"
                float2 inputs:st.connect = <../st_reader.outputs:result>
                token inputs:wrapS = "clamp"
                token inputs:wrapT = "clamp"
                float outputs:a
                color3f outputs:rgb
            }
        }
        def Mesh "environment_far_card" {
            uniform bool doubleSided = true
            uniform token purpose = "render"
            bool physics:collisionEnabled = false
            uniform token subdivisionScheme = "none"
            point3f[] points = [(-1.2702751, -1.7462481, -0.20681976), (-1.7828439, 1.1314034, 0.11870252), (-0.96338624, 1.3790159, -0.77989554), (-0.45081738, -1.4986356, -1.1054177)]
            int[] faceVertexCounts = [3, 3]
            int[] faceVertexIndices = [0, 1, 2, 0, 2, 3]
            texCoord2f[] primvars:st = [(0, 1), (1, 1), (1, 0.43841335), (0, 0.43841335)] ( interpolation = "vertex" )
            rel material:binding = <../environment_far_card_material>
        }
        def Material "environment_far_card_material" {
            token outputs:surface.connect = <surface.outputs:surface>
            def Shader "surface" {
                uniform token info:id = "UsdPreviewSurface"

                color3f inputs:diffuseColor.connect = <../image.outputs:rgb>
                float inputs:metallic = 0
                float inputs:roughness = 1
                float inputs:opacity.connect = <../image.outputs:a>
                float inputs:opacityThreshold = 0.1
                token outputs:surface
            }
            def Shader "st_reader" {
                uniform token info:id = "UsdPrimvarReader_float2"
                token inputs:varname = "st"
                float2 outputs:result
            }
            def Shader "image" {
                uniform token info:id = "UsdUVTexture"
                asset inputs:file = @../textures/wrist_background_layer0_card.png@
                token inputs:sourceColorSpace = "sRGB"
                float2 inputs:st.connect = <../st_reader.outputs:result>
                token inputs:wrapS = "clamp"
                token inputs:wrapT = "clamp"
                float outputs:a
                color3f outputs:rgb
            }
        }
}
