#usda 1.0
(
    defaultPrim = "WristLabEnvironment"
)

def Xform "WristLabEnvironment" {
        def Mesh "environment_depth_proxy" {
            uniform bool doubleSided = true
            uniform token purpose = "render"
            bool physics:collisionEnabled = false
            uniform token subdivisionScheme = "none"
            point3f[] points = [(-0.10527866, -0.59488577, 0.1835793), (-0.10709888, -0.59119385, 0.18378516), (-0.10991553, -0.58844846, 0.18366827), (-0.10115586, -0.59295791, 0.18043891), (-0.0941002, -0.58811277, 0.17832172), (-0.083180994, -0.57939196, 0.17762105), (-0.080109976, -0.57845914, 0.17422158), (-0.078970671, -0.57946408, 0.17011385), (-0.087419383, -0.59013659, 0.16238657), (-0.080454573, -0.58531898, 0.16037005), (-0.071628772, -0.57858509, 0.15914005), (-0.067591839, -0.57668334, 0.1560947), (-0.064505666, -0.57574588, 0.15267844), (-0.064226203, -0.57768756, 0.14809917), (-0.059263881, -0.57482928, 0.14545266), (-0.056172661, -0.57389033, 0.14203081), (-0.053081438, -0.57295138, 0.13860896), (-0.058228444, -0.58059442, 0.13149677), (-0.062374182, -0.58725774, 0.12469958), (-0.064628668, -0.59199566, 0.11865533), (-0.044065218, -0.55535495, 0.11712979), (-0.057445075, -0.56342596, 0.1115872), (-0.082537577, -0.5829978, 0.10044134), (-0.049842473, -0.56354851, 0.10926715), (-0.054247782, -0.56245476, 0.10804793), (-0.068487287, -0.5711934, 0.10201257), (-0.078294918, -0.57524788, 0.098190829), (-0.091712035, -0.58268946, 0.092639245), (-0.11144578, -0.59605837, 0.084060408), (-0.10877599, -0.58737981, 0.086393304), (-0.040522963, -0.56178272, 0.1078919), (-0.049321402, -0.56532186, 0.10441298), (-0.059030484, -0.56963116, 0.10050456), (-0.064326242, -0.56930149, 0.098833479), (-0.071414016, -0.57067728, 0.096284546), (-0.078520402, -0.57194799, 0.093747623), (-0.079401493, -0.56698674, 0.094313011), (-0.081175953, -0.56289339, 0.094437756), (-0.021760631, -0.5607357, 0.10963142), (-0.019065933, -0.55243719, 0.11196713), (-0.028647196, -0.55716652, 0.10795319), (-0.040013045, -0.5635832, 0.10305193), (-0.052291159, -0.57073104, 0.097719863), (-0.06284067, -0.57587618, 0.093311034), (-0.071653627, -0.57906377, 0.089820288), (-0.076069184, -0.57767254, 0.088588834), (-0.07783854, -0.57357758, 0.088708013), (-0.077836692, -0.56772012, 0.089723036), (-0.076055586, -0.5601452, 0.09162879), (-0.073376887, -0.55175668, 0.093974762), (-0.085789397, -0.61398751, 0.073915355), (-0.072694756, -0.59431309, 0.081809737), (-0.068323143, -0.58390111, 0.085115895), (-0.075348198, -0.58521038, 0.082493819), (-0.079754159, -0.58375293, 0.081246875), (-0.079768024, -0.57783699, 0.082274325), (-0.078897342, -0.57106388, 0.083752729), (-0.075371623, -0.56172669, 0.08658313), (-0.076255381, -0.55675054, 0.087150231), (-0.085071847, -0.59758472, 0.071852177), (-0.081610039, -0.58803755, 0.074735343), (-0.073757343, -0.57417458, 0.079905495), (-0.074646428, -0.56916839, 0.080476016), (-0.072900966, -0.56157267, 0.08241874), (-0.069388501, -0.55231071, 0.085269406), (-0.064981878, -0.54227567, 0.088567197), (-0.079891436, -0.59475505, 0.068971775), (-0.071237467, -0.57992578, 0.074674509), (-0.065165512, -0.56789148, 0.078964345), (-0.066046603, -0.56293029, 0.079529732), (-0.063435175, -0.55452257, 0.081947081), (-0.055566344, -0.54105026, 0.087130383), (-0.04679507, -0.52688146, 0.092757843), (-0.052213877, -0.60376155, 0.072176799), (-0.051378783, -0.59696758, 0.073692195), (-0.052253205, -0.59204388, 0.074253306), (-0.050551426, -0.58438236, 0.076238103), (-0.055722237, -0.58400679, 0.074428089), (-0.068659082, -0.59163469, 0.068370923), (-0.068692051, -0.58570081, 0.069417737), (-0.066994272, -0.57801676, 0.071405105), (-0.061826795, -0.56687731, 0.075268529), (-0.059240904, -0.55844575, 0.077711664), (-0.058380533, -0.55179441, 0.079210781), (-0.048820697, -0.53664732, 0.085383743), (-0.040099651, -0.52252543, 0.091069289), (-0.033595793, -0.5859471, 0.077186808), (-0.036150921, -0.58299565, 0.076770507), (-0.037859034, -0.57909566, 0.076838635), (-0.044692013, -0.58064723, 0.074027501), (-0.053253684, -0.58390087, 0.070269749), (-0.060983002, -0.58612329, 0.067005835), (-0.061872087, -0.58111709, 0.067576356), (-0.059325065, -0.5725866, 0.070053831), (-0.057627723, -0.56498963, 0.07204859), (-0.057645798, -0.55916989, 0.073088139), (-0.055072114, -0.55078954, 0.075548507), (-0.045572892, -0.5356608, 0.08178857), (-0.038638767, -0.52324283, 0.086590707), (-0.032547716, -0.51179606, 0.090905823), (-0.029518507, -0.58403313, 0.074096717), (-0.038830034, -0.58848268, 0.069768682), (-0.039695129, -0.58361155, 0.07032381), (-0.044803433, -0.58328819, 0.068450183), (-0.049075101, -0.58198774, 0.06707), (-0.059316568, -0.58688903, 0.062308405), (-0.061060954, -0.58275485, 0.062397458), (-0.064515978, -0.5803647, 0.061523549), (-0.065413065, -0.57531345, 0.0620992), (-0.062883578, -0.56680405, 0.064597331), (-0.060343429, -0.55835474, 0.067088619), (-0.053496085, -0.54571795, 0.071967594), (-0.044903494, -0.53153223, 0.077787265), (-0.037143536, -0.51834613, 0.083110929), (-0.066457644, -0.55491632, 0.060155261), (-0.051931467, -0.53486413, 0.069421954), (-0.045081597, -0.5225113, 0.074320458), (-0.022379166, -0.58659315, 0.05623072), (-0.06278161, 0.35460639, 0.10739701), (-0.064540237, 0.35963014, 0.10743176), (-0.066301592, 0.36466894, 0.10746819), (-0.065144956, 0.36791381, 0.10891356), (-0.060083598, 0.3686868, 0.11222832), (-0.055006243, 0.36936975, 0.11553282), (-0.061898127, 0.35280076, 0.10215282), (-0.062689908, 0.35725906, 0.10266091), (-0.062515892, 0.36112791, 0.10364535), (-0.062339153, 0.36498171, 0.10462811), (-0.059254356, 0.36700702, 0.1070331), (-0.053249512, 0.3671363, 0.11085264), (-0.052081704, 0.37025806, 0.11229548), (-0.051880971, 0.37397674, 0.11326284), (-0.052651424, 0.37831497, 0.11375723), (-0.063173272, 0.38907349, 0.10954784), (-0.058897827, 0.35371208, 0.098831624), (-0.057770722, 0.35700336, 0.10030535), (-0.058559835, 0.36144668, 0.10081171), (-0.0545385, 0.36289734, 0.10372359), (-0.053394124, 0.36609107, 0.10518617), (-0.05031487, 0.36802769, 0.10760412), (-0.050123245, 0.3717674, 0.10857961), (-0.049928952, 0.3754921, 0.10955339), (-0.056513257, 0.38365418, 0.1071877), (-0.057960831, 0.35187519, 0.093532011), (-0.055897523, 0.35462341, 0.095510416), (-0.05478052, 0.35791162, 0.096995324), (-0.050791103, 0.35939217, 0.099939436), (-0.051573552, 0.36379793, 0.10044153), (-0.046605777, 0.36455834, 0.10385864), (-0.046420537, 0.36830401, 0.10484058), (-0.047193654, 0.37265727, 0.10533669), (-0.05181627, 0.37953085, 0.10389969), (-0.061712205, 0.35282284, 0.085710883), (-0.059678711, 0.35564902, 0.087715477), (-0.052897219, 0.35553476, 0.092189215), (-0.051790319, 0.35881987, 0.093685299), (-0.04687551, 0.35969865, 0.097150505), (-0.043848664, 0.36169055, 0.099620886), (-0.043671139, 0.36544973, 0.10061012), (-0.043490946, 0.36919388, 0.10159765), (-0.06630037, 0.35423306, 0.077283613), (-0.063357703, 0.35657907, 0.079817414), (-0.057579596, 0.35714573, 0.083848245), (-0.053668678, 0.35876855, 0.086866237), (-0.053521477, 0.36266875, 0.087877348), (-0.046752453, 0.36238462, 0.092377827), (-0.041855898, 0.3631866, 0.095868908), (-0.040736496, 0.36634111, 0.097361609), (-0.063199043, 0.35517505, 0.07385058), (-0.060276583, 0.35751495, 0.076406755), (-0.061089691, 0.36209336, 0.076928519), (-0.054399733, 0.36201462, 0.081498526), (-0.050506018, 0.36358467, 0.084539369), (-0.045658488, 0.36448258, 0.088075943), (-0.059279278, 0.35150865, 0.069892369), (-0.061026547, 0.35667825, 0.069903366), (-0.063706689, 0.36243153, 0.069402725), (-0.064529128, 0.36706248, 0.069930479), (-0.061620213, 0.36935872, 0.072504729), (-0.057766471, 0.37100372, 0.075582907), (-0.055359516, 0.34784222, 0.065934151), (-0.055255514, 0.35189548, 0.066979967), (-0.056996394, 0.35705909, 0.066984527), (-0.061515324, 0.36394835, 0.065434001), (-0.069750734, 0.37320852, 0.06181803), (-0.056928162, 0.34742609, 0.058808304), (-0.052258193, 0.34878424, 0.062501118), (-0.050324403, 0.35172248, 0.064605005), (-0.053895071, 0.35800111, 0.063551493)]
            int[] faceVertexCounts = [3, 3, 3, 3, 3, 3, 3, 3, 3, 3, 3, 3, 3, 3, 3, 3, 3, 3, 3, 3, 3, 3, 3, 3, 3, 3, 3, 3, 3, 3, 3, 3, 3, 3, 3, 3, 3, 3, 3, 3, 3, 3, 3, 3, 3, 3, 3, 3, 3, 3, 3, 3, 3, 3, 3, 3, 3, 3, 3, 3, 3, 3, 3, 3, 3, 3, 3, 3, 3, 3, 3, 3, 3, 3, 3, 3, 3, 3, 3, 3, 3, 3, 3, 3, 3, 3, 3, 3, 3, 3, 3, 3, 3, 3, 3, 3, 3, 3, 3, 3, 3, 3, 3, 3, 3, 3, 3, 3, 3, 3, 3, 3, 3, 3, 3, 3, 3, 3, 3, 3, 3, 3, 3, 3, 3, 3, 3, 3, 3, 3, 3, 3, 3, 3, 3, 3, 3, 3, 3, 3, 3, 3, 3, 3, 3, 3, 3, 3, 3, 3, 3, 3, 3, 3, 3, 3, 3, 3, 3, 3, 3, 3, 3, 3, 3, 3, 3, 3, 3, 3, 3, 3, 3, 3, 3, 3, 3, 3, 3, 3, 3, 3, 3, 3, 3, 3, 3, 3, 3, 3, 3, 3, 3, 3, 3, 3, 3, 3, 3, 3, 3, 3, 3, 3, 3, 3, 3, 3, 3, 3, 3, 3, 3, 3, 3, 3, 3, 3, 3, 3, 3, 3, 3, 3, 3, 3, 3, 3, 3, 3, 3, 3, 3, 3, 3, 3, 3, 3, 3, 3, 3]
            int[] faceVertexIndices = [0, 1, 3, 20, 21, 23, 21, 24, 23, 21, 22, 24, 22, 25, 24, 23, 31, 30, 23, 24, 31, 24, 32, 31, 24, 25, 32, 25, 33, 32, 25, 26, 33, 26, 34, 33, 26, 27, 34, 27, 35, 34, 27, 28, 35, 28, 36, 35, 28, 29, 36, 29, 37, 36, 30, 41, 40, 30, 31, 41, 31, 42, 41, 31, 32, 42, 32, 43, 42, 32, 33, 43, 33, 44, 43, 33, 34, 44, 34, 45, 44, 34, 35, 45, 35, 46, 45, 35, 36, 46, 36, 47, 46, 36, 37, 47, 37, 48, 47, 42, 43, 51, 43, 52, 51, 43, 44, 52, 44, 53, 52, 44, 45, 53, 45, 54, 53, 45, 46, 54, 46, 55, 54, 46, 47, 55, 47, 56, 55, 47, 48, 56, 48, 57, 56, 48, 49, 57, 49, 58, 57, 53, 54, 59, 54, 60, 59, 54, 55, 60, 55, 61, 60, 55, 56, 61, 56, 62, 61, 56, 57, 62, 57, 63, 62, 57, 58, 63, 58, 64, 63, 59, 60, 66, 60, 67, 66, 60, 61, 67, 61, 68, 67, 61, 62, 68, 62, 69, 68, 62, 63, 69, 63, 70, 69, 63, 64, 70, 64, 71, 70, 64, 65, 71, 65, 72, 71, 66, 79, 78, 66, 67, 79, 67, 80, 79, 67, 68, 80, 68, 81, 80, 68, 69, 81, 69, 82, 81, 69, 70, 82, 70, 83, 82, 70, 71, 83, 71, 84, 83, 71, 72, 84, 72, 85, 84, 73, 74, 86, 74, 87, 86, 74, 75, 87, 75, 88, 87, 75, 76, 88, 76, 89, 88, 76, 77, 89, 77, 90, 89, 77, 78, 90, 78, 91, 90, 78, 79, 91, 79, 92, 91, 79, 80, 92, 80, 93, 92, 80, 81, 93, 81, 94, 93, 81, 82, 94, 82, 95, 94, 82, 83, 95, 83, 96, 95, 83, 84, 96, 84, 97, 96, 84, 85, 97, 85, 98, 97, 86, 87, 100, 87, 101, 100, 87, 88, 101, 88, 102, 101, 88, 89, 102, 89, 103, 102, 89, 90, 103, 90, 104, 103, 90, 91, 104, 91, 105, 104, 91, 92, 105, 92, 106, 105, 92, 93, 106, 93, 107, 106, 93, 94, 107, 94, 108, 107, 94, 95, 108, 95, 109, 108, 95, 96, 109, 96, 110, 109, 96, 97, 110, 97, 111, 110, 97, 98, 111, 98, 112, 111, 98, 99, 112, 99, 113, 112, 112, 113, 114, 113, 115, 114, 118, 125, 124, 118, 119, 125, 119, 126, 125, 119, 120, 126, 120, 127, 126, 120, 121, 127, 121, 128, 127, 121, 122, 128, 122, 129, 128, 122, 123, 129, 123, 130, 129, 124, 125, 134, 125, 135, 134, 125, 126, 135, 126, 136, 135, 126, 127, 136, 127, 137, 136, 127, 128, 137, 128, 138, 137, 128, 129, 138, 129, 139, 138, 129, 130, 139, 130, 140, 139, 130, 131, 140, 131, 141, 140, 131, 132, 141, 132, 142, 141, 132, 133, 142, 134, 144, 143, 134, 135, 144, 135, 145, 144, 135, 136, 145, 136, 146, 145, 136, 137, 146, 137, 147, 146, 137, 138, 147, 138, 148, 147, 138, 139, 148, 139, 149, 148, 139, 140, 149, 140, 150, 149, 140, 141, 150, 141, 151, 150, 141, 142, 151, 143, 153, 152, 143, 144, 153, 144, 154, 153, 144, 145, 154, 145, 155, 154, 145, 146, 155, 146, 156, 155, 146, 147, 156, 147, 157, 156, 147, 148, 157, 148, 158, 157, 148, 149, 158, 149, 159, 158, 149, 150, 159, 152, 161, 160, 152, 153, 161, 153, 162, 161, 153, 154, 162, 154, 163, 162, 154, 155, 163, 155, 164, 163, 155, 156, 164, 156, 165, 164, 156, 157, 165, 157, 166, 165, 157, 158, 166, 158, 167, 166, 158, 159, 167, 160, 161, 168, 161, 169, 168, 161, 162, 169, 162, 170, 169, 162, 163, 170, 163, 171, 170, 163, 164, 171, 164, 172, 171, 164, 165, 172, 165, 173, 172, 165, 166, 173, 168, 175, 174, 168, 169, 175, 169, 176, 175, 169, 170, 176, 170, 177, 176, 170, 171, 177, 171, 178, 177, 171, 172, 178, 172, 179, 178, 172, 173, 179, 174, 181, 180, 174, 175, 181, 175, 182, 181, 175, 176, 182, 176, 183, 182, 176, 177, 183, 177, 184, 183, 177, 178, 184, 180, 186, 185, 180, 181, 186, 181, 187, 186, 181, 182, 187, 182, 188, 187, 182, 183, 188]
            texCoord2f[] primvars:st = [(0, 1), (0.0046948357, 1), (0.0093896715, 1), (0, 0.99373692), (0, 0.98747391), (0, 0.98121083), (0, 0.97494781), (0, 0.96868473), (0, 0.96242172), (0, 0.95615864), (0, 0.94989562), (0, 0.94363254), (0, 0.93736953), (0, 0.93110645), (0, 0.92484343), (0, 0.91858035), (0, 0.91231734), (0, 0.90605426), (0, 0.89979124), (0, 0.89352816), (0.018779343, 0.87473905), (0.023474179, 0.87473905), (0.028169014, 0.87473905), (0.018779343, 0.86847597), (0.023474179, 0.86847597), (0.028169014, 0.86847597), (0.032863848, 0.86847597), (0.037558686, 0.86847597), (0.04225352, 0.86847597), (0.046948358, 0.86847597), (0.014084507, 0.86221296), (0.018779343, 0.86221296), (0.023474179, 0.86221296), (0.028169014, 0.86221296), (0.032863848, 0.86221296), (0.037558686, 0.86221296), (0.04225352, 0.86221296), (0.046948358, 0.86221296), (0, 0.85594988), (0.0046948357, 0.85594988), (0.0093896715, 0.85594988), (0.014084507, 0.85594988), (0.018779343, 0.85594988), (0.023474179, 0.85594988), (0.028169014, 0.85594988), (0.032863848, 0.85594988), (0.037558686, 0.85594988), (0.04225352, 0.85594988), (0.046948358, 0.85594988), (0.051643193, 0.85594988), (0.014084507, 0.84968686), (0.018779343, 0.84968686), (0.023474179, 0.84968686), (0.028169014, 0.84968686), (0.032863848, 0.84968686), (0.037558686, 0.84968686), (0.04225352, 0.84968686), (0.046948358, 0.84968686), (0.051643193, 0.84968686), (0.028169014, 0.84342378), (0.032863848, 0.84342378), (0.037558686, 0.84342378), (0.04225352, 0.84342378), (0.046948358, 0.84342378), (0.051643193, 0.84342378), (0.056338027, 0.84342378), (0.028169014, 0.83716077), (0.032863848, 0.83716077), (0.037558686, 0.83716077), (0.04225352, 0.83716077), (0.046948358, 0.83716077), (0.051643193, 0.83716077), (0.056338027, 0.83716077), (0, 0.83089769), (0.0046948357, 0.83089769), (0.0093896715, 0.83089769), (0.014084507, 0.83089769), (0.018779343, 0.83089769), (0.023474179, 0.83089769), (0.028169014, 0.83089769), (0.032863848, 0.83089769), (0.037558686, 0.83089769), (0.04225352, 0.83089769), (0.046948358, 0.83089769), (0.051643193, 0.83089769), (0.056338027, 0.83089769), (0, 0.82463467), (0.0046948357, 0.82463467), (0.0093896715, 0.82463467), (0.014084507, 0.82463467), (0.018779343, 0.82463467), (0.023474179, 0.82463467), (0.028169014, 0.82463467), (0.032863848, 0.82463467), (0.037558686, 0.82463467), (0.04225352, 0.82463467), (0.046948358, 0.82463467), (0.051643193, 0.82463467), (0.056338027, 0.82463467), (0.061032865, 0.82463467), (0, 0.81837159), (0.0046948357, 0.81837159), (0.0093896715, 0.81837159), (0.014084507, 0.81837159), (0.018779343, 0.81837159), (0.023474179, 0.81837159), (0.028169014, 0.81837159), (0.032863848, 0.81837159), (0.037558686, 0.81837159), (0.04225352, 0.81837159), (0.046948358, 0.81837159), (0.051643193, 0.81837159), (0.056338027, 0.81837159), (0.061032865, 0.81837159), (0.056338027, 0.81210858), (0.061032865, 0.81210858), (0.065727696, 0.81210858), (0, 0.7933194), (0.92018777, 0.64926928), (0.92488265, 0.64926928), (0.92957747, 0.64926928), (0.93427229, 0.64926928), (0.93896711, 0.64926928), (0.94366199, 0.64926928), (0.91549295, 0.64300627), (0.92018777, 0.64300627), (0.92488265, 0.64300627), (0.92957747, 0.64300627), (0.93427229, 0.64300627), (0.93896711, 0.64300627), (0.94366199, 0.64300627), (0.94835681, 0.64300627), (0.95305163, 0.64300627), (0.95774651, 0.64300627), (0.91549295, 0.63674319), (0.92018777, 0.63674319), (0.92488265, 0.63674319), (0.92957747, 0.63674319), (0.93427229, 0.63674319), (0.93896711, 0.63674319), (0.94366199, 0.63674319), (0.94835681, 0.63674319), (0.95305163, 0.63674319), (0.91079813, 0.63048017), (0.91549295, 0.63048017), (0.92018777, 0.63048017), (0.92488265, 0.63048017), (0.92957747, 0.63048017), (0.93427229, 0.63048017), (0.93896711, 0.63048017), (0.94366199, 0.63048017), (0.94835681, 0.63048017), (0.90610331, 0.62421709), (0.91079813, 0.62421709), (0.91549295, 0.62421709), (0.92018777, 0.62421709), (0.92488265, 0.62421709), (0.92957747, 0.62421709), (0.93427229, 0.62421709), (0.93896711, 0.62421709), (0.90140843, 0.61795408), (0.90610331, 0.61795408), (0.91079813, 0.61795408), (0.91549295, 0.61795408), (0.92018777, 0.61795408), (0.92488265, 0.61795408), (0.92957747, 0.61795408), (0.93427229, 0.61795408), (0.90140843, 0.611691), (0.90610331, 0.611691), (0.91079813, 0.611691), (0.91549295, 0.611691), (0.92018777, 0.611691), (0.92488265, 0.611691), (0.89671361, 0.60542798), (0.90140843, 0.60542798), (0.90610331, 0.60542798), (0.91079813, 0.60542798), (0.91549295, 0.60542798), (0.92018777, 0.60542798), (0.8920188, 0.5991649), (0.89671361, 0.5991649), (0.90140843, 0.5991649), (0.90610331, 0.5991649), (0.91079813, 0.5991649), (0.88732392, 0.59290189), (0.8920188, 0.59290189), (0.89671361, 0.59290189), (0.90140843, 0.59290189)] ( interpolation = "vertex" )
            rel material:binding = <../environment_depth_proxy_material>
        }
        def Material "environment_depth_proxy_material" {
            token outputs:surface.connect = <surface.outputs:surface>
            def Shader "surface" {
                uniform token info:id = "UsdPreviewSurface"

                color3f inputs:diffuseColor.connect = <../image.outputs:rgb>
                float inputs:metallic = 0
                float inputs:roughness = 1

                token outputs:surface
            }
            def Shader "st_reader" {
                uniform token info:id = "UsdPrimvarReader_float2"
                token inputs:varname = "st"
                float2 outputs:result
            }
            def Shader "image" {
                uniform token info:id = "UsdUVTexture"
                asset inputs:file = @../textures/wrist_background_layer1.png@
                token inputs:sourceColorSpace = "sRGB"
                float2 inputs:st.connect = <../st_reader.outputs:result>
                token inputs:wrapS = "clamp"
                token inputs:wrapT = "clamp"
                float outputs:a
                color3f outputs:rgb
            }
        }
}
